<mxfile host="app.diagrams.net" modified="2024-01-07T14:00:02.869Z" agent="Mozilla/5.0 (Windows NT 10.0; Win64; x64) AppleWebKit/537.36 (KHTML, like Gecko) Chrome/120.0.0.0 Safari/537.36" etag="Z5iot9CkONGxJ_RXvlJE" version="22.1.17" type="device">
  <diagram name="第 1 页" id="oZHfy60B06Gg_I67x8Qi">
    <mxGraphModel dx="1034" dy="459" grid="1" gridSize="10" guides="1" tooltips="1" connect="1" arrows="1" fold="1" page="1" pageScale="1" pageWidth="827" pageHeight="1169" math="0" shadow="0">
      <root>
        <mxCell id="0" />
        <mxCell id="1" parent="0" />
        <mxCell id="KL-YzWmICsVjGZMYXzRP-72" style="edgeStyle=orthogonalEdgeStyle;rounded=0;orthogonalLoop=1;jettySize=auto;html=1;exitX=1;exitY=0.3333333333333333;exitDx=0;exitDy=0;exitPerimeter=0;" edge="1" parent="1" source="KL-YzWmICsVjGZMYXzRP-68" target="KL-YzWmICsVjGZMYXzRP-69">
          <mxGeometry relative="1" as="geometry" />
        </mxCell>
        <mxCell id="KL-YzWmICsVjGZMYXzRP-68" value="Actor" style="shape=umlActor;verticalLabelPosition=bottom;verticalAlign=top;html=1;outlineConnect=0;" vertex="1" parent="1">
          <mxGeometry x="160" y="570" width="30" height="60" as="geometry" />
        </mxCell>
        <mxCell id="KL-YzWmICsVjGZMYXzRP-69" value="&lt;font style=&quot;vertical-align: inherit;&quot;&gt;&lt;font style=&quot;vertical-align: inherit;&quot;&gt;&lt;font style=&quot;vertical-align: inherit;&quot;&gt;&lt;font style=&quot;vertical-align: inherit;&quot;&gt;&lt;font style=&quot;vertical-align: inherit;&quot;&gt;&lt;font style=&quot;vertical-align: inherit;&quot;&gt;&lt;br&gt;管理界面&lt;/font&gt;&lt;/font&gt;&lt;/font&gt;&lt;/font&gt;&lt;/font&gt;&lt;/font&gt;" style="rounded=1;whiteSpace=wrap;html=1;" vertex="1" parent="1">
          <mxGeometry x="450" y="540" width="120" height="60" as="geometry" />
        </mxCell>
        <mxCell id="KL-YzWmICsVjGZMYXzRP-74" style="edgeStyle=orthogonalEdgeStyle;rounded=0;orthogonalLoop=1;jettySize=auto;html=1;exitX=1;exitY=0.5;exitDx=0;exitDy=0;entryX=0;entryY=0.5;entryDx=0;entryDy=0;" edge="1" parent="1" source="KL-YzWmICsVjGZMYXzRP-70" target="KL-YzWmICsVjGZMYXzRP-71">
          <mxGeometry relative="1" as="geometry" />
        </mxCell>
        <mxCell id="KL-YzWmICsVjGZMYXzRP-75" style="edgeStyle=orthogonalEdgeStyle;rounded=0;orthogonalLoop=1;jettySize=auto;html=1;exitX=1;exitY=0;exitDx=0;exitDy=0;entryX=0;entryY=1;entryDx=0;entryDy=0;" edge="1" parent="1" source="KL-YzWmICsVjGZMYXzRP-70" target="KL-YzWmICsVjGZMYXzRP-69">
          <mxGeometry relative="1" as="geometry" />
        </mxCell>
        <mxCell id="KL-YzWmICsVjGZMYXzRP-70" value="&lt;font style=&quot;vertical-align: inherit;&quot;&gt;&lt;font style=&quot;vertical-align: inherit;&quot;&gt;店鋪信息&lt;/font&gt;&lt;/font&gt;" style="rounded=1;whiteSpace=wrap;html=1;" vertex="1" parent="1">
          <mxGeometry x="270" y="780" width="120" height="60" as="geometry" />
        </mxCell>
        <mxCell id="KL-YzWmICsVjGZMYXzRP-71" value="&lt;font style=&quot;vertical-align: inherit;&quot;&gt;&lt;font style=&quot;vertical-align: inherit;&quot;&gt;數據庫&lt;/font&gt;&lt;/font&gt;" style="rounded=1;whiteSpace=wrap;html=1;" vertex="1" parent="1">
          <mxGeometry x="590" y="780" width="120" height="60" as="geometry" />
        </mxCell>
        <mxCell id="KL-YzWmICsVjGZMYXzRP-73" style="edgeStyle=orthogonalEdgeStyle;rounded=0;orthogonalLoop=1;jettySize=auto;html=1;exitX=0;exitY=0;exitDx=0;exitDy=0;entryX=0;entryY=1;entryDx=0;entryDy=0;entryPerimeter=0;" edge="1" parent="1" source="KL-YzWmICsVjGZMYXzRP-70" target="KL-YzWmICsVjGZMYXzRP-68">
          <mxGeometry relative="1" as="geometry" />
        </mxCell>
        <mxCell id="KL-YzWmICsVjGZMYXzRP-76" value="" style="endArrow=classic;html=1;rounded=0;" edge="1" parent="1">
          <mxGeometry width="50" height="50" relative="1" as="geometry">
            <mxPoint x="450" y="790" as="sourcePoint" />
            <mxPoint x="540" y="790" as="targetPoint" />
          </mxGeometry>
        </mxCell>
        <mxCell id="KL-YzWmICsVjGZMYXzRP-82" value="&lt;font style=&quot;vertical-align: inherit;&quot;&gt;&lt;font style=&quot;vertical-align: inherit;&quot;&gt;提交&lt;/font&gt;&lt;/font&gt;" style="edgeLabel;html=1;align=center;verticalAlign=middle;resizable=0;points=[];" vertex="1" connectable="0" parent="KL-YzWmICsVjGZMYXzRP-76">
          <mxGeometry x="-0.1407" y="-1" relative="1" as="geometry">
            <mxPoint as="offset" />
          </mxGeometry>
        </mxCell>
        <mxCell id="KL-YzWmICsVjGZMYXzRP-77" value="&lt;font style=&quot;vertical-align: inherit;&quot;&gt;&lt;font style=&quot;vertical-align: inherit;&quot;&gt;結果&lt;/font&gt;&lt;/font&gt;" style="endArrow=classic;html=1;rounded=0;" edge="1" parent="1">
          <mxGeometry width="50" height="50" relative="1" as="geometry">
            <mxPoint x="530" y="850" as="sourcePoint" />
            <mxPoint x="450" y="850" as="targetPoint" />
          </mxGeometry>
        </mxCell>
        <mxCell id="KL-YzWmICsVjGZMYXzRP-78" value="" style="endArrow=classic;html=1;rounded=0;" edge="1" parent="1">
          <mxGeometry width="50" height="50" relative="1" as="geometry">
            <mxPoint x="100" y="700" as="sourcePoint" />
            <mxPoint x="100" y="630" as="targetPoint" />
          </mxGeometry>
        </mxCell>
        <mxCell id="KL-YzWmICsVjGZMYXzRP-79" value="&lt;font style=&quot;vertical-align: inherit;&quot;&gt;&lt;font style=&quot;vertical-align: inherit;&quot;&gt;退出&lt;/font&gt;&lt;/font&gt;" style="edgeLabel;html=1;align=center;verticalAlign=middle;resizable=0;points=[];" vertex="1" connectable="0" parent="KL-YzWmICsVjGZMYXzRP-78">
          <mxGeometry x="-0.1905" y="3" relative="1" as="geometry">
            <mxPoint as="offset" />
          </mxGeometry>
        </mxCell>
        <mxCell id="KL-YzWmICsVjGZMYXzRP-80" value="" style="endArrow=classic;html=1;rounded=0;" edge="1" parent="1">
          <mxGeometry width="50" height="50" relative="1" as="geometry">
            <mxPoint x="240" y="550" as="sourcePoint" />
            <mxPoint x="310" y="550" as="targetPoint" />
          </mxGeometry>
        </mxCell>
        <mxCell id="KL-YzWmICsVjGZMYXzRP-81" value="&lt;font style=&quot;vertical-align: inherit;&quot;&gt;&lt;font style=&quot;vertical-align: inherit;&quot;&gt;登入&lt;/font&gt;&lt;/font&gt;" style="edgeLabel;html=1;align=center;verticalAlign=middle;resizable=0;points=[];" vertex="1" connectable="0" parent="KL-YzWmICsVjGZMYXzRP-80">
          <mxGeometry x="-0.2952" relative="1" as="geometry">
            <mxPoint as="offset" />
          </mxGeometry>
        </mxCell>
        <mxCell id="KL-YzWmICsVjGZMYXzRP-83" value="" style="endArrow=classic;html=1;rounded=0;" edge="1" parent="1">
          <mxGeometry width="50" height="50" relative="1" as="geometry">
            <mxPoint x="360" y="690" as="sourcePoint" />
            <mxPoint x="360" y="750" as="targetPoint" />
          </mxGeometry>
        </mxCell>
        <mxCell id="KL-YzWmICsVjGZMYXzRP-84" value="&lt;font style=&quot;vertical-align: inherit;&quot;&gt;&lt;font style=&quot;vertical-align: inherit;&quot;&gt;更新&lt;/font&gt;&lt;/font&gt;" style="edgeLabel;html=1;align=center;verticalAlign=middle;resizable=0;points=[];" vertex="1" connectable="0" parent="KL-YzWmICsVjGZMYXzRP-83">
          <mxGeometry x="-0.1444" relative="1" as="geometry">
            <mxPoint as="offset" />
          </mxGeometry>
        </mxCell>
      </root>
    </mxGraphModel>
  </diagram>
</mxfile>
